<?xml version="1.0" encoding="utf-8"?>
<!-- Generator: Adobe Illustrator 25.4.1, SVG Export Plug-In . SVG Version: 6.00 Build 0)  -->
<svg version="1.1" id="Слой_1" xmlns="http://www.w3.org/2000/svg" xmlns:xlink="http://www.w3.org/1999/xlink" x="0px" y="0px"
	 viewBox="0 0 188.6 42.6" style="enable-background:new 0 0 188.6 42.6;" xml:space="preserve">
<style type="text/css">
	.st0{fill:none;}
	.st1{enable-background:new    ;}
	.st2{fill:#4299D4;}
	.st3{fill:none;stroke:#0072EF;stroke-width:5;stroke-miterlimit:10;}
	.st4{fill:none;stroke:#D61116;stroke-width:12;stroke-miterlimit:10;}
	.st5{display:none;fill:#010202;enable-background:new    ;}
	.st6{font-family:'CenturyGothic';}
	.st7{font-size:6px;}
	.st8{display:none;enable-background:new    ;}
	.st9{display:inline;fill:#6A150E;}
	.st10{fill:none;stroke:#0072EF;stroke-width:3;stroke-miterlimit:10;}
	.st11{display:none;fill:none;stroke:#7E1710;stroke-miterlimit:10;}
</style>
<g>
	<rect x="5.5" y="3.1" class="st0" width="151.9" height="39.9"/>
	<g class="st1">
		<path class="st2" d="M23.6,3.1c4.6,0,8.4,1.5,11.5,4.6c3.1,3,4.6,6.8,4.6,11.3c0,4.4-1.5,8.2-4.6,11.2c-3.1,3.1-6.8,4.6-11.2,4.6
			c-4.5,0-8.2-1.5-11.3-4.6S8,23.4,8,19.1c0-2.9,0.7-5.6,2.1-8.1s3.3-4.4,5.7-5.8C18.1,3.8,20.8,3.1,23.6,3.1z M23.7,6
			c-2.2,0-4.3,0.6-6.3,1.7c-2,1.2-3.6,2.7-4.7,4.7S11,16.6,11,19c0,3.6,1.2,6.6,3.7,9.1s5.5,3.7,9,3.7c2.3,0,4.5-0.6,6.5-1.7
			s3.5-2.7,4.7-4.7s1.7-4.2,1.7-6.6s-0.6-4.6-1.7-6.5c-1.1-1.9-2.7-3.5-4.7-4.6C28.1,6.6,26,6,23.7,6z"/>
		<path class="st2" d="M44.5,6.8V3.9h15.9L47.8,31.1h12v3H43.2L55.9,6.8H44.5L44.5,6.8z"/>
		<path class="st2" d="M80.2,3.1c4.6,0,8.4,1.5,11.5,4.6c3.1,3,4.6,6.8,4.6,11.3c0,4.4-1.5,8.2-4.6,11.2c-3.1,3.1-6.8,4.6-11.2,4.6
			c-4.5,0-8.2-1.5-11.3-4.6s-4.6-6.8-4.6-11.1c0-2.9,0.7-5.6,2.1-8.1s3.3-4.4,5.7-5.8C74.8,3.8,77.4,3.1,80.2,3.1z M80.4,6
			c-2.2,0-4.3,0.6-6.3,1.7c-2,1.2-3.6,2.7-4.7,4.7s-1.7,4.2-1.7,6.6c0,3.6,1.2,6.6,3.7,9.1s5.5,3.7,9,3.7c2.3,0,4.5-0.6,6.5-1.7
			s3.5-2.7,4.7-4.7s1.7-4.2,1.7-6.6s-0.6-4.6-1.7-6.5s-2.7-3.5-4.7-4.6C84.8,6.6,82.6,6,80.4,6z"/>
		<path class="st2" d="M102.4,34V3.8h0.7l20.1,23.1V3.8h3V34h-0.7l-19.9-22.8V34H102.4z"/>
		<path class="st2" d="M133.5,3.9h17.3v3h-14.3v9.5h14.2v3h-14.2v11.9h14.2v3h-17.2V3.9z"/>
	</g>
	<g class="st1">
		<path class="st3" d="M23.6,3.1c4.6,0,8.4,1.5,11.5,4.6c3.1,3,4.6,6.8,4.6,11.3c0,4.4-1.5,8.2-4.6,11.2c-3.1,3.1-6.8,4.6-11.2,4.6
			c-4.5,0-8.2-1.5-11.3-4.6S8,23.4,8,19.1c0-2.9,0.7-5.6,2.1-8.1s3.3-4.4,5.7-5.8C18.1,3.8,20.8,3.1,23.6,3.1z M23.7,6
			c-2.2,0-4.3,0.6-6.3,1.7c-2,1.2-3.6,2.7-4.7,4.7S11,16.6,11,19c0,3.6,1.2,6.6,3.7,9.1s5.5,3.7,9,3.7c2.3,0,4.5-0.6,6.5-1.7
			s3.5-2.7,4.7-4.7s1.7-4.2,1.7-6.6s-0.6-4.6-1.7-6.5c-1.1-1.9-2.7-3.5-4.7-4.6C28.1,6.6,26,6,23.7,6z"/>
		<path class="st3" d="M44.5,6.8V3.9h15.9L47.8,31.1h12v3H43.2L55.9,6.8H44.5L44.5,6.8z"/>
		<path class="st3" d="M80.2,3.1c4.6,0,8.4,1.5,11.5,4.6c3.1,3,4.6,6.8,4.6,11.3c0,4.4-1.5,8.2-4.6,11.2c-3.1,3.1-6.8,4.6-11.2,4.6
			c-4.5,0-8.2-1.5-11.3-4.6s-4.6-6.8-4.6-11.1c0-2.9,0.7-5.6,2.1-8.1s3.3-4.4,5.7-5.8C74.8,3.8,77.4,3.1,80.2,3.1z M80.4,6
			c-2.2,0-4.3,0.6-6.3,1.7c-2,1.2-3.6,2.7-4.7,4.7s-1.7,4.2-1.7,6.6c0,3.6,1.2,6.6,3.7,9.1s5.5,3.7,9,3.7c2.3,0,4.5-0.6,6.5-1.7
			s3.5-2.7,4.7-4.7s1.7-4.2,1.7-6.6s-0.6-4.6-1.7-6.5s-2.7-3.5-4.7-4.6C84.8,6.6,82.6,6,80.4,6z"/>
		<path class="st3" d="M102.4,34V3.8h0.7l20.1,23.1V3.8h3V34h-0.7l-19.9-22.8V34H102.4z"/>
		<path class="st3" d="M133.5,3.9h17.3v3h-14.3v9.5h14.2v3h-14.2v11.9h14.2v3h-17.2V3.9z"/>
	</g>
</g>
<line class="st4" x1="2.5" y1="19" x2="156" y2="19"/>
<rect x="4" y="16.7" class="st0" width="150.5" height="7.6"/>
<text transform="matrix(1 0 0 1 3.9729 21.1135)" class="st5 st6 st7">NNNNNNNNNNNNNNNNNNNNNNNNNNNNNNNNNNNNNNNNNNNNN</text>
<rect x="2.7" y="15.3" class="st0" width="185.9" height="30.8"/>
<g class="st8">
	<path class="st9" d="M3.3,22.7v-7.2h0.2L8.3,21v-5.5H9v7.2H8.8l-4.7-5.4v5.4H3.3z"/>
	<path class="st9" d="M8.9,22.7v-7.2h0.2l4.8,5.5v-5.5h0.7v7.2h-0.2l-4.7-5.4v5.4H8.9z"/>
	<path class="st9" d="M14.4,22.7v-7.2h0.2l4.8,5.5v-5.5h0.7v7.2h-0.2l-4.7-5.4v5.4H14.4z"/>
	<path class="st9" d="M20,22.7v-7.2h0.2L25,21v-5.5h0.7v7.2h-0.2l-4.7-5.4v5.4H20z"/>
	<path class="st9" d="M25.5,22.7v-7.2h0.2l4.8,5.5v-5.5h0.7v7.2H31l-4.7-5.4v5.4H25.5z"/>
	<path class="st9" d="M31.1,22.7v-7.2h0.2l4.8,5.5v-5.5h0.7v7.2h-0.2l-4.7-5.4v5.4H31.1z"/>
	<path class="st9" d="M36.6,22.7v-7.2h0.2l4.8,5.5v-5.5h0.7v7.2h-0.2l-4.7-5.4v5.4H36.6z"/>
	<path class="st9" d="M42.2,22.7v-7.2h0.2l4.8,5.5v-5.5h0.7v7.2h-0.2L43,17.3v5.4C43,22.7,42.2,22.7,42.2,22.7z"/>
	<path class="st9" d="M47.7,22.7v-7.2h0.2l4.8,5.5v-5.5h0.7v7.2h-0.2l-4.7-5.4v5.4H47.7z"/>
	<path class="st9" d="M53.3,22.7v-7.2h0.2l4.8,5.5v-5.5H59v7.2h-0.2l-4.7-5.4v5.4H53.3z"/>
	<path class="st9" d="M58.8,22.7v-7.2H59l4.8,5.5v-5.5h0.7v7.2h-0.2l-4.7-5.4v5.4H58.8z"/>
	<path class="st9" d="M64.4,22.7v-7.2h0.2l4.8,5.5v-5.5h0.7v7.2h-0.2l-4.7-5.4v5.4H64.4z"/>
	<path class="st9" d="M69.9,22.7v-7.2h0.2l4.8,5.5v-5.5h0.7v7.2h-0.2l-4.7-5.4v5.4H69.9z"/>
	<path class="st9" d="M75.5,22.7v-7.2h0.2l4.8,5.5v-5.5h0.7v7.2H81l-4.7-5.4v5.4H75.5z"/>
	<path class="st9" d="M81,22.7v-7.2h0.2L86,21v-5.5h0.7v7.2h-0.2l-4.7-5.4v5.4H81z"/>
	<path class="st9" d="M86.6,22.7v-7.2h0.2l4.8,5.5v-5.5h0.7v7.2h-0.2l-4.7-5.4v5.4H86.6z"/>
	<path class="st9" d="M92.1,22.7v-7.2h0.2l4.8,5.5v-5.5h0.7v7.2h-0.2l-4.7-5.4v5.4H92.1z"/>
	<path class="st9" d="M97.7,22.7v-7.2h0.2l4.8,5.5v-5.5h0.7v7.2h-0.3l-4.7-5.4v5.4H97.7z"/>
	<path class="st9" d="M103.2,22.7v-7.2h0.2l4.8,5.5v-5.5h0.7v7.2h-0.2l-4.7-5.4v5.4H103.2z"/>
	<path class="st9" d="M108.8,22.7v-7.2h0.2l4.8,5.5v-5.5h0.7v7.2h-0.2l-4.7-5.4v5.4H108.8z"/>
	<path class="st9" d="M114.3,22.7v-7.2h0.2l4.8,5.5v-5.5h0.7v7.2h-0.2l-4.7-5.4v5.4H114.3z"/>
	<path class="st9" d="M119.8,22.7v-7.2h0.2l4.8,5.5v-5.5h0.7v7.2h-0.2l-4.7-5.4v5.4H119.8z"/>
	<path class="st9" d="M125.4,22.7v-7.2h0.2l4.8,5.5v-5.5h0.7v7.2h-0.2l-4.7-5.4v5.4H125.4z"/>
	<path class="st9" d="M130.9,22.7v-7.2h0.2l4.8,5.5v-5.5h0.7v7.2h-0.2l-4.7-5.4v5.4H130.9z"/>
	<path class="st9" d="M136.5,22.7v-7.2h0.2l4.8,5.5v-5.5h0.7v7.2H142l-4.7-5.4v5.4H136.5z"/>
	<path class="st9" d="M142,22.7v-7.2h0.2L147,21v-5.5h0.7v7.2h-0.2l-4.7-5.4v5.4H142z"/>
	<path class="st9" d="M147.6,22.7v-7.2h0.2l4.8,5.5v-5.5h0.7v7.2h-0.2l-4.7-5.4v5.4H147.6z"/>
</g>
<g>
	<rect x="152.6" y="10.9" class="st0" width="57.6" height="30.3"/>
	<g class="st1">
		<path class="st2" d="M154.4,26.4V11.3h0.3l10,11.6V11.3h1.5v15.1h-0.3l-10-11.4v11.4C155.9,26.4,154.4,26.4,154.4,26.4z"/>
		<path class="st2" d="M177.1,10.9c2.3,0,4.2,0.8,5.7,2.3s2.3,3.4,2.3,5.6s-0.8,4.1-2.3,5.6s-3.4,2.3-5.6,2.3s-4.1-0.8-5.7-2.3
			c-1.5-1.5-2.3-3.4-2.3-5.6c0-1.4,0.4-2.8,1.1-4s1.7-2.2,2.9-2.9C174.4,11.3,175.7,10.9,177.1,10.9z M177.2,12.4
			c-1.1,0-2.2,0.3-3.2,0.9s-1.8,1.4-2.3,2.3c-0.5,0.9-0.8,2.1-0.8,3.3c0,1.8,0.6,3.3,1.9,4.5c1.2,1.2,2.7,1.9,4.5,1.9
			c1.2,0,2.3-0.3,3.3-0.9s1.8-1.3,2.3-2.3c0.6-1,0.8-2.1,0.8-3.3c0-1.2-0.3-2.3-0.8-3.2c-0.6-1-1.3-1.7-2.4-2.3
			C179.4,12.7,178.3,12.4,177.2,12.4z"/>
	</g>
	<g class="st1">
		<path class="st10" d="M154.4,26.4V11.3h0.3l10,11.6V11.3h1.5v15.1h-0.3l-10-11.4v11.4C155.9,26.4,154.4,26.4,154.4,26.4z"/>
		<path class="st10" d="M177.1,10.9c2.3,0,4.2,0.8,5.7,2.3s2.3,3.4,2.3,5.6s-0.8,4.1-2.3,5.6s-3.4,2.3-5.6,2.3s-4.1-0.8-5.7-2.3
			c-1.5-1.5-2.3-3.4-2.3-5.6c0-1.4,0.4-2.8,1.1-4s1.7-2.2,2.9-2.9C174.4,11.3,175.7,10.9,177.1,10.9z M177.2,12.4
			c-1.1,0-2.2,0.3-3.2,0.9s-1.8,1.4-2.3,2.3c-0.5,0.9-0.8,2.1-0.8,3.3c0,1.8,0.6,3.3,1.9,4.5c1.2,1.2,2.7,1.9,4.5,1.9
			c1.2,0,2.3-0.3,3.3-0.9s1.8-1.3,2.3-2.3c0.6-1,0.8-2.1,0.8-3.3c0-1.2-0.3-2.3-0.8-3.2c-0.6-1-1.3-1.7-2.4-2.3
			C179.4,12.7,178.3,12.4,177.2,12.4z"/>
	</g>
</g>
<line class="st11" x1="2.5" y1="19.2" x2="152.9" y2="19.2"/>
</svg>
